<?xml version="1.0" standalone="no"?>
<!DOCTYPE svg PUBLIC "-//W3C//DTD SVG 20010904//EN"
 "http://www.w3.org/TR/2001/REC-SVG-20010904/DTD/svg10.dtd">
<svg version="1.0" xmlns="http://www.w3.org/2000/svg"
 width="1745.000000pt" height="1536.000000pt" viewBox="0 0 1745.000000 1536.000000"
 preserveAspectRatio="xMidYMid meet">
<metadata>
Created by potrace 1.15, written by Peter Selinger 2001-2017
</metadata>
<g transform="translate(0.000000,1536.000000) scale(0.100000,-0.100000)"
fill="#000000" stroke="none">
<path d="M7695 2699 c-27 -6 -84 -26 -125 -46 -200 -96 -338 -337 -357 -625
-7 -112 3 -104 -125 -114 l-88 -6 0 -38 0 -38 73 -11 c39 -7 87 -14 105 -17
l32 -5 0 -502 c0 -384 -3 -508 -13 -527 -13 -26 -36 -34 -129 -45 -47 -6 -48
-7 -48 -41 l0 -34 340 0 340 0 0 34 c0 31 -3 34 -37 40 -21 3 -62 6 -91 6 -43
0 -58 5 -77 25 l-25 24 0 509 0 509 88 7 c48 3 129 12 180 18 l92 11 0 37 0
37 -77 6 c-43 4 -124 9 -180 13 l-103 7 0 151 c0 234 29 356 99 428 85 84 237
67 354 -41 24 -23 51 -41 60 -41 19 0 87 132 87 170 0 34 -24 56 -91 81 -63
24 -208 33 -284 18z"/>
<path d="M12120 2663 c-112 -8 -316 -35 -324 -43 -4 -4 -5 -22 -1 -39 7 -31 7
-31 54 -25 60 8 87 -6 109 -54 15 -34 17 -124 20 -966 l3 -929 37 7 c20 3 42
6 48 6 6 0 17 13 24 30 7 16 14 30 16 30 2 0 54 -15 116 -33 105 -30 123 -32
258 -31 115 0 161 5 222 22 259 71 435 242 503 487 24 90 31 293 12 382 -25
117 -69 197 -156 283 -115 115 -234 165 -416 177 -112 7 -227 -14 -337 -62
l-78 -33 0 399 0 399 -32 -2 c-18 -1 -53 -3 -78 -5z m444 -853 c103 -26 169
-63 241 -135 109 -109 155 -235 155 -425 0 -243 -92 -420 -258 -498 -52 -25
-68 -27 -177 -27 -108 0 -125 3 -175 26 -30 14 -70 38 -87 53 l-33 28 0 472 0
473 38 17 c86 38 187 44 296 16z"/>
<path d="M2062 2584 c-55 -28 -77 -69 -77 -145 0 -56 4 -71 27 -101 33 -43 83
-62 148 -56 59 6 94 31 121 86 37 74 16 153 -54 206 -36 27 -122 32 -165 10z"/>
<path d="M830 2525 c-376 -63 -656 -266 -764 -552 -56 -150 -61 -183 -61 -408
0 -188 3 -219 24 -295 99 -365 361 -583 773 -644 245 -37 601 -3 775 74 41 18
42 20 76 127 33 99 56 206 72 324 5 42 4 47 -17 53 -58 15 -64 10 -98 -76
-100 -256 -217 -366 -425 -403 -533 -95 -903 299 -882 940 6 180 26 268 93
405 84 170 232 290 421 342 107 29 320 31 408 4 184 -56 283 -164 331 -359 17
-68 18 -69 47 -63 16 3 36 6 44 6 13 0 14 16 8 113 -4 61 -14 157 -23 212
l-17 100 -45 23 c-60 29 -212 67 -325 81 -117 14 -320 12 -415 -4z"/>
<path d="M9431 2526 c-19 -7 -37 -19 -39 -27 -13 -37 -658 -1602 -683 -1656
-33 -70 -66 -98 -124 -108 -73 -12 -75 -14 -75 -51 l0 -34 300 0 300 0 0 34
c0 38 -2 39 -105 51 -89 11 -105 16 -120 39 -12 19 -12 29 0 75 24 91 178 505
192 517 16 14 189 34 293 34 86 0 272 -19 287 -29 12 -8 203 -525 210 -568 6
-38 -7 -47 -97 -62 -114 -20 -110 -18 -110 -56 l0 -35 350 0 350 0 0 34 c0 38
-3 40 -85 51 -40 6 -57 14 -85 44 -37 39 -25 8 -554 1381 -84 220 -150 376
-158 377 -7 1 -28 -4 -47 -11z m63 -718 c64 -169 116 -309 116 -310 0 -2 -112
-3 -248 -3 l-248 0 79 200 c43 110 99 253 124 318 26 65 49 114 53 110 4 -4
60 -146 124 -315z"/>
<path d="M2870 2132 c-114 -113 -120 -122 -120 -160 0 -46 7 -43 -137 -63
l-83 -11 0 -33 c0 -24 5 -35 18 -39 19 -6 155 -25 184 -26 15 0 17 -41 20
-482 5 -526 7 -551 63 -624 40 -52 101 -76 212 -82 105 -5 188 11 301 57 65
27 67 29 64 62 -1 18 -5 35 -7 38 -3 2 -28 -1 -56 -7 -147 -34 -245 9 -290
127 -28 74 -38 235 -39 614 l0 297 23 0 c45 0 246 20 261 26 10 4 16 18 16 40
0 19 -2 34 -5 34 -11 0 -200 20 -242 26 l-43 5 0 47 c0 26 7 94 15 151 8 57
14 105 12 106 -1 2 -12 6 -25 10 -20 6 -40 -10 -142 -113z"/>
<path d="M2150 1951 c-111 -24 -283 -71 -293 -80 -4 -4 -4 -22 -1 -39 l6 -32
68 6 c110 11 104 39 108 -508 3 -513 2 -531 -53 -554 -19 -8 -47 -14 -62 -14
-58 0 -73 -10 -73 -46 l0 -34 315 0 315 0 0 35 c0 38 5 35 -94 52 -37 6 -54
15 -70 36 -21 28 -21 38 -24 613 l-3 584 -27 -1 c-15 0 -65 -9 -112 -18z"/>
<path d="M6050 1956 c-135 -29 -237 -82 -338 -180 -108 -103 -170 -234 -193
-403 -57 -426 199 -741 619 -760 185 -9 320 25 453 113 186 123 283 327 283
594 0 136 -13 197 -64 305 -77 159 -213 270 -395 319 -82 23 -282 29 -365 12z
m285 -129 c70 -33 144 -101 185 -172 16 -28 41 -91 56 -140 24 -81 27 -106 28
-250 0 -125 -3 -174 -17 -224 -43 -152 -128 -261 -234 -301 -84 -32 -214 -25
-298 15 -119 57 -207 174 -252 335 -27 100 -25 338 5 443 31 108 65 172 126
232 73 74 134 96 251 92 73 -2 101 -8 150 -30z"/>
<path d="M10568 1950 c-85 -19 -286 -75 -293 -82 -3 -2 -2 -21 2 -41 5 -34 8
-36 32 -29 14 4 46 7 71 7 75 0 74 5 81 -475 5 -345 9 -425 23 -475 30 -110
102 -185 212 -221 48 -16 87 -19 214 -19 141 1 162 3 235 28 44 15 106 42 138
62 66 40 67 40 67 20 0 -30 50 -115 68 -115 41 0 349 79 369 94 1 1 -2 18 -7
38 l-10 35 -68 -4 c-82 -6 -98 7 -112 93 -6 33 -10 294 -10 582 l0 522 -27 0
c-37 0 -223 -43 -330 -75 l-85 -26 5 -36 c8 -45 9 -46 41 -33 32 12 86 13 102
2 37 -24 39 -47 42 -509 l3 -452 -33 -21 c-104 -64 -258 -87 -373 -55 -120 32
-185 117 -205 267 -5 40 -10 268 -10 506 l0 432 -27 -1 c-16 0 -67 -9 -115
-19z"/>
<path d="M13588 1950 c-85 -19 -286 -75 -293 -82 -3 -2 -2 -21 2 -41 5 -34 8
-36 32 -29 14 4 46 7 71 7 75 0 74 6 81 -480 5 -395 7 -424 27 -486 56 -169
195 -238 460 -227 134 6 239 35 334 92 l57 35 30 -65 c21 -44 36 -64 48 -64
42 0 350 79 370 94 1 1 -2 18 -7 38 l-10 35 -68 -4 c-82 -6 -98 7 -112 93 -6
33 -10 294 -10 582 l0 522 -27 0 c-37 0 -223 -43 -330 -75 l-85 -26 5 -36 c8
-45 9 -46 41 -33 40 15 92 12 110 -5 8 -9 19 -32 23 -53 4 -20 8 -233 8 -472
l0 -435 -50 -27 c-102 -55 -248 -72 -359 -41 -49 13 -71 27 -111 67 -88 88
-88 90 -93 654 l-3 482 -27 -1 c-15 0 -66 -9 -114 -19z"/>
<path d="M15185 1949 c-66 -16 -264 -77 -273 -84 -2 -2 18 -67 23 -73 2 -2 25
3 52 11 29 9 57 11 69 6 46 -16 49 -52 49 -546 0 -557 12 -512 -147 -538 -35
-5 -38 -8 -38 -40 l0 -35 335 0 335 0 0 35 c0 39 -2 40 -105 50 -66 6 -106 29
-116 66 -4 13 -7 221 -8 461 l-1 436 25 31 c30 35 85 56 123 47 15 -4 68 -18
119 -32 l92 -26 35 27 c46 35 110 121 103 139 -3 8 -36 29 -72 47 -131 64
-234 47 -363 -61 l-70 -59 -7 52 c-13 105 -13 107 -48 106 -18 0 -68 -9 -112
-20z"/>
<path d="M16260 1951 c-111 -24 -283 -71 -293 -80 -4 -4 -4 -22 -1 -39 l6 -32
68 6 c111 11 105 43 105 -532 l0 -482 -24 -26 c-13 -14 -38 -28 -55 -30 -113
-18 -106 -14 -106 -51 l0 -35 315 0 315 0 0 34 c0 37 -12 46 -61 46 -47 0 -98
26 -111 57 -9 20 -13 149 -16 458 l-3 430 48 48 c26 26 72 60 103 75 47 23 67
27 145 27 78 0 97 -4 147 -28 72 -35 112 -84 140 -167 21 -61 22 -87 26 -430
4 -412 2 -433 -53 -456 -19 -8 -47 -14 -62 -14 -58 0 -73 -10 -73 -46 l0 -34
315 0 315 0 0 34 c0 37 -12 46 -61 46 -48 0 -94 25 -107 56 -7 19 -13 171 -16
419 -6 420 -13 490 -60 582 -26 52 -84 111 -136 138 -47 25 -156 45 -240 45
-136 0 -275 -48 -379 -130 l-51 -40 0 85 0 85 -27 -1 c-16 0 -66 -9 -113 -18z"/>
<path d="M3332 1893 c3 -35 5 -38 58 -53 72 -21 103 -43 123 -83 80 -161 423
-968 439 -1031 50 -198 -11 -317 -231 -447 -148 -89 -187 -122 -205 -175 -9
-26 -16 -60 -16 -76 l0 -28 70 0 c171 0 302 108 420 345 27 55 148 334 270
620 246 580 331 763 379 818 22 25 50 42 87 54 53 16 54 17 54 55 l0 38 -286
0 -285 0 3 -37 3 -37 99 -17 c55 -10 106 -25 115 -33 14 -14 11 -29 -31 -155
-52 -154 -254 -681 -266 -693 -7 -7 -331 772 -340 817 -5 29 13 40 115 64 l78
18 3 36 3 37 -331 0 -331 0 3 -37z"/>
</g>
</svg>
